
        <svg xmlns="http://www.w3.org/2000/svg" xmlns:xlink="http://www.w3.org/1999/xlink" version="1.1" width="3260.8695652173915" 
        height="1076.6777025762553" viewBox="0 -26.08695652173913 3260.8695652173915 1076.6777025762553">
			
			<g transform="scale(13.043478260869565) translate(10, 10)">
				<defs id="SvgjsDefs5123"><linearGradient id="SvgjsLinearGradient5130"><stop id="SvgjsStop5131" stop-color="#6B7820" offset="0"></stop><stop id="SvgjsStop5132" stop-color="#8B9B2A" offset="1"></stop></linearGradient></defs><g id="SvgjsG5124" featureKey="symbolFeature-0" transform="matrix(-0.7317014623199315,0,0,-0.7317014623199315,65.12139944305866,61.58265871107063)" fill="url(#SvgjsLinearGradient5130)"><path xmlns="http://www.w3.org/2000/svg" d="M88.891,34.886L83.228,23.8c-0.163-0.318-0.482-0.525-0.84-0.543l-11.549-0.593l-5.261-10.299  c-0.163-0.318-0.482-0.525-0.839-0.543l-12.432-0.639c-0.353-0.015-0.696,0.156-0.89,0.455l-6.158,9.503l-10.824-0.555l-5.26-10.299  c-0.163-0.318-0.482-0.525-0.839-0.543L15.905,9.105c-0.359-0.021-0.696,0.155-0.891,0.455l-6.77,10.446  c-0.194,0.3-0.214,0.681-0.051,0.999l5.26,10.299l-6.293,9.713c-0.194,0.3-0.214,0.681-0.051,0.999l5.664,11.085  c0.163,0.318,0.482,0.525,0.839,0.544l11.367,0.583l4.948,9.687l-6.293,9.713c-0.194,0.3-0.214,0.681-0.051,0.999l5.663,11.085  c0.163,0.318,0.482,0.525,0.839,0.544l12.432,0.64c0.017,0.001,0.034,0.001,0.051,0.001c0.338,0,0.654-0.171,0.839-0.456  l6.294-9.714l11.549,0.594c0.38,0.022,0.697-0.155,0.891-0.455l6.768-10.446c0.194-0.3,0.214-0.681,0.052-0.999l-5.194-10.171  l5.866-9.056l11.548,0.593c0.374,0.028,0.697-0.155,0.891-0.455l6.768-10.447C89.033,35.584,89.053,35.204,88.891,34.886z   M53.06,13.756l10.666,0.548l4.859,9.511l-5.808,8.963l-10.585-0.545l-4.894-9.584L53.06,13.756z M44.891,23.657l4.895,9.583  l-5.763,8.893l-10.666-0.548L28.5,32.075l5.807-8.962L44.891,23.657z M10.849,20.641l5.807-8.963l10.667,0.548l4.858,9.511  L26.375,30.7l-10.666-0.547L10.849,20.641z M14.625,51.163l-4.86-9.511l5.808-8.962l10.666,0.547l4.858,9.511l-5.807,8.963  L14.625,51.163z M27.323,53.253l5.807-8.964l10.666,0.547l4.859,9.51l-5.807,8.963l-10.667-0.548L27.323,53.253z M41.765,84.321  l-10.666-0.547l-4.86-9.511l5.807-8.964l10.667,0.548l4.858,9.51L41.765,84.321z M66.304,65.783l-5.808,8.964l-10.665-0.548  l-4.859-9.511l5.784-8.928l10.709,0.551L66.304,65.783z M61.718,53.751l-10.709-0.549l-4.838-9.473l5.807-8.962l10.666,0.547  l4.858,9.51L61.718,53.751z M80.428,44.213l-10.666-0.548l-4.859-9.511l5.807-8.962l10.666,0.547l4.86,9.512L80.428,44.213z"></path></g><g id="SvgjsG5125" featureKey="nameFeature-0" transform="matrix(1.5440994045406455,0,0,1.5440994045406455,80.00000294513589,-18.46742599207295)" fill="#6B7820"><path d="M30.6 11.96 l0 9.4 l-17.2 0 c-2.36 0.2 -4.16 2.24 -4.16 4.64 s1.8 4.36 4.16 4.64 l10.96 0 l0 3.12 l-10.96 0 c-4.04 -0.32 -7.24 -3.64 -7.24 -7.8 c0 -4 3.08 -7.4 7.08 -7.72 l14.24 0 l0 -3.16 l-14.08 0 l0 0.04 c-5.72 0.32 -10.28 5.04 -10.28 10.88 c0 5.8 4.56 10.56 10.28 10.88 l14.08 0 l0 -6.24 l3.12 0 l0 9.36 l-17.2 0 c-7.48 -0.32 -13.4 -6.48 -13.4 -14 c0 -7.56 5.92 -13.68 13.4 -14 z M34.032000000000004 11.96 l17.2 0 c7.48 0.32 13.4 6.48 13.4 14 c0 7.56 -5.92 13.72 -13.4 14.04 l-17.2 0 l0 -21.8 l17.2 0 c4.04 0.32 7.24 3.64 7.24 7.8 c0 4 -3.08 7.44 -7.08 7.76 l-11.12 0 l0 -9.84 l3.12 0 l0 6.72 l7.84 -0.04 c2.36 -0.2 4.16 -2.24 4.16 -4.6 c0 -2.04 -1.28 -3.72 -3.08 -4.4 c-0.68 -0.28 -1.08 -0.28 -2.16 -0.28 l-13 0 l0 15.56 l14.08 0 c5.72 -0.32 10.28 -5.04 10.28 -10.92 c0 -5.8 -4.56 -10.56 -10.28 -10.88 l-17.2 0 l0 -3.12 z M89.944 27.560000000000002 c-15.88 0 -16.12 -0.04 -16.32 -0.04 l-0.08 0 c-4 -0.32 -7.08 -3.72 -7.08 -7.76 c0 -4.32 3.48 -7.8 7.8 -7.8 l16.8 0 c3.36 0 6.08 2.72 6.08 6.12 l0 3.24 l-22.76 0 l-0.04 0 l-0.04 0 c-0.92 -0.04 -1.52 -0.72 -1.52 -1.56 s0.64 -1.52 1.48 -1.56 l19.76 0 l0 -0.08 c0 -1.72 -1.32 -3.04 -3.04 -3.04 l-16.72 0 c-2.56 0 -4.68 2.08 -4.68 4.68 c0 2.4 1.8 4.32 4.08 4.64 c15.96 0 16.12 0.04 16.4 0.04 c4 0.32 7.08 3.76 7.08 7.76 c0 4.32 -3.48 7.8 -7.76 7.8 l-16.84 0 c-3.36 0 -6.08 -2.72 -6.08 -6.08 l0 -3.28 l22.92 0 c1.96 0.12 1.96 3 0 3.12 l-19.8 0 l0 0.08 c0 1.72 1.32 3.04 3.04 3.04 l16.76 0 c2.52 0 4.68 -2 4.68 -4.68 c0 -2.4 -1.8 -4.32 -4.12 -4.64 z"></path></g><g id="SvgjsG5126" featureKey="sloganFeature-0" transform="matrix(0.6214167089683164,0,0,0.6214167089683164,84.42862163743041,48.00477165241404)" fill="#6B7820"><path d="M2.4 14.98 c0 1.4 0.58 2.62 1.68 3.34 c0.56 0.38 1.2 0.56 1.92 0.56 c0.84 0 1.58 -0.28 2.04 -0.62 c0.22 -0.16 0.42 -0.36 0.62 -0.6 c0.36 -0.48 0.52 -0.8 0.66 -1.16 l1.34 0.44 c-0.22 0.78 -0.76 1.54 -1.52 2.16 c-0.76 0.64 -1.92 1.08 -3.16 1.08 c-2.84 0.04 -5.1 -2.18 -5.06 -5.12 c0 -0.98 0.24 -1.86 0.7 -2.66 s1.08 -1.42 1.86 -1.86 s1.62 -0.66 2.56 -0.66 c1.12 0 2.12 0.32 2.96 0.92 c0.86 0.64 1.4 1.38 1.6 2.26 l-1.32 0.44 c-0.22 -0.8 -1.24 -2.32 -3.28 -2.32 c-1.04 0 -1.9 0.36 -2.58 1.1 s-1.02 1.64 -1.02 2.7 z M17.284 14.26 l2.76 0 l0 -0.66 c0 -1.6 -0.88 -2.42 -2.54 -2.42 c-0.8 0 -1.48 0.26 -1.88 0.66 s-0.64 0.86 -0.72 1.36 l-1.4 -0.3 c0.02 -0.5 0.5 -1.48 1.4 -2.2 c0.6 -0.46 1.56 -0.82 2.64 -0.82 c1.82 0 3.02 0.68 3.62 2.06 c0.2 0.46 0.3 1 0.3 1.64 l0 2.8 c0 1.66 0.06 2.88 0.16 3.62 l-1.44 0 c-0.08 -0.44 -0.14 -1.02 -0.14 -1.74 l0 0 c-0.84 1.28 -1.94 1.92 -3.36 1.92 c-0.98 0 -1.8 -0.28 -2.4 -0.84 c-0.62 -0.54 -0.94 -1.24 -0.94 -2.1 l0 -0.1 c0 -2.16 2.16 -2.88 3.94 -2.88 z M20.044 15.8 l0 -0.34 l-2.78 0 c-0.58 0 -1.12 0.1 -1.62 0.34 c-0.5 0.22 -0.84 0.7 -0.84 1.32 c0 0.56 0.2 0.98 0.62 1.3 c0.4 0.32 0.9 0.48 1.52 0.48 c0.88 0 1.62 -0.3 2.22 -0.88 c0.58 -0.56 0.88 -1.32 0.88 -2.22 z M35.548 15.02 c0 1.8 -0.78 3.42 -2.22 4.4 c-0.72 0.48 -1.54 0.72 -2.46 0.72 c-1.62 0 -2.92 -0.74 -3.86 -2.24 l0 2.1 l-1.42 0 l0 -15.16 l1.46 0 l0 7.36 c1 -1.54 2.28 -2.32 3.82 -2.32 c1.38 0 2.62 0.62 3.42 1.6 c0.78 0.96 1.26 2.24 1.26 3.54 z M30.588 18.88 c1.06 0 1.9 -0.38 2.54 -1.1 c0.62 -0.74 0.94 -1.64 0.94 -2.72 c0 -1.4 -0.54 -2.62 -1.62 -3.34 c-0.52 -0.36 -1.16 -0.54 -1.86 -0.54 c-2.02 -0.04 -3.62 1.84 -3.56 3.82 c0 1.04 0.32 1.96 1 2.72 c0.68 0.78 1.52 1.16 2.56 1.16 z M39.032000000000004 7.279999999999999 c-0.2 -0.22 -0.32 -0.48 -0.32 -0.78 s0.12 -0.56 0.32 -0.78 c0.2 -0.2 0.48 -0.32 0.78 -0.32 s0.56 0.12 0.76 0.32 c0.22 0.22 0.32 0.48 0.32 0.78 s-0.1 0.56 -0.32 0.78 c-0.2 0.2 -0.46 0.32 -0.76 0.32 s-0.58 -0.12 -0.78 -0.32 z M39.072 20 l0 -9.94 l1.46 0 l0 9.94 l-1.46 0 z M53.396 20 l-1.46 0 l0 -5.78 c0 -0.92 -0.22 -1.64 -0.7 -2.2 c-0.46 -0.54 -1.14 -0.82 -2.04 -0.82 c-0.86 0 -1.58 0.3 -2.14 0.9 c-0.54 0.6 -0.82 1.34 -0.82 2.24 l0 5.66 l-1.46 0 l0 -9.94 l1.42 0 l0 1.82 c0.8 -1.34 1.94 -2 3.44 -2 c1.18 0 2.1 0.36 2.78 1.08 c0.64 0.74 0.98 1.7 0.98 2.9 l0 6.14 z M66.3 15.48 l-8.04 0 c0.06 0.98 0.42 1.78 1.1 2.42 c0.68 0.66 1.5 0.98 2.46 0.98 c1.5 0 2.62 -0.74 3.08 -2.12 l1.28 0.4 c-0.28 0.94 -0.82 1.68 -1.62 2.22 c-0.8 0.52 -1.7 0.8 -2.72 0.8 c-0.94 0 -1.8 -0.24 -2.58 -0.7 s-1.38 -1.08 -1.8 -1.88 c-0.44 -0.78 -0.66 -1.64 -0.66 -2.58 c0 -0.9 0.2 -1.74 0.62 -2.52 c0.4 -0.8 0.98 -1.42 1.74 -1.9 c0.74 -0.48 1.58 -0.72 2.48 -0.72 c0.98 0 1.84 0.22 2.56 0.68 c0.72 0.44 1.26 1.06 1.6 1.82 c0.36 0.76 0.52 1.62 0.52 2.62 c0 0.1 0 0.26 -0.02 0.48 z M58.28 14.24 l6.58 0 c-0.1 -0.92 -0.44 -1.66 -1 -2.24 c-0.56 -0.56 -1.3 -0.84 -2.22 -0.84 c-0.86 0 -1.58 0.3 -2.22 0.9 c-0.64 0.62 -1.02 1.34 -1.14 2.18 z M73.26400000000001 20.08 c-2.16 0 -2.82 -1.2 -2.82 -2.66 l0 -6.08 l-1.84 0 l0 -1.28 l1.84 0 l0 -2.86 l1.44 0 l0 2.86 l2.52 0 l0 1.28 l-2.52 0 l0 6.06 c0 0.92 0.54 1.4 1.62 1.4 c0.34 0 0.64 -0.04 0.9 -0.08 l0 1.2 c-0.32 0.1 -0.7 0.16 -1.14 0.16 z M83.272 15.02 c0 -1.3 0.48 -2.58 1.28 -3.54 c0.8 -0.98 2.02 -1.6 3.38 -1.6 c0.92 0 1.74 0.26 2.36 0.7 s1.06 0.92 1.5 1.56 l0 -7.3 l1.44 0 l0 15.16 l-1.42 0 l0 -2.12 c-0.92 1.52 -2.22 2.26 -3.88 2.26 c-1.38 0 -2.6 -0.6 -3.4 -1.54 c-0.78 -0.94 -1.26 -2.22 -1.26 -3.58 z M88.232 18.88 c2.04 0.02 3.62 -1.88 3.58 -3.88 c0 -1.3 -0.64 -2.54 -1.74 -3.28 c-0.56 -0.36 -1.18 -0.54 -1.84 -0.54 c-1.06 0 -1.9 0.36 -2.52 1.1 c-0.64 0.74 -0.96 1.66 -0.96 2.78 c0 1.38 0.56 2.56 1.62 3.28 c0.54 0.36 1.16 0.54 1.86 0.54 z M106.256 15.48 l-8.04 0 c0.06 0.98 0.42 1.78 1.1 2.42 c0.68 0.66 1.5 0.98 2.46 0.98 c1.5 0 2.62 -0.74 3.08 -2.12 l1.28 0.4 c-0.28 0.94 -0.82 1.68 -1.62 2.22 c-0.8 0.52 -1.7 0.8 -2.72 0.8 c-0.94 0 -1.8 -0.24 -2.58 -0.7 s-1.38 -1.08 -1.8 -1.88 c-0.44 -0.78 -0.66 -1.64 -0.66 -2.58 c0 -0.9 0.2 -1.74 0.62 -2.52 c0.4 -0.8 0.98 -1.42 1.74 -1.9 c0.74 -0.48 1.58 -0.72 2.48 -0.72 c0.98 0 1.84 0.22 2.56 0.68 c0.72 0.44 1.26 1.06 1.6 1.82 c0.36 0.76 0.52 1.62 0.52 2.62 c0 0.1 0 0.26 -0.02 0.48 z M98.236 14.24 l6.58 0 c-0.1 -0.92 -0.44 -1.66 -1 -2.24 c-0.56 -0.56 -1.3 -0.84 -2.22 -0.84 c-0.86 0 -1.58 0.3 -2.22 0.9 c-0.64 0.62 -1.02 1.34 -1.14 2.18 z M112.97999999999999 14.26 l2.76 0 l0 -0.66 c0 -1.6 -0.88 -2.42 -2.54 -2.42 c-0.8 0 -1.48 0.26 -1.88 0.66 s-0.64 0.86 -0.72 1.36 l-1.4 -0.3 c0.02 -0.5 0.5 -1.48 1.4 -2.2 c0.6 -0.46 1.56 -0.82 2.64 -0.82 c1.82 0 3.02 0.68 3.62 2.06 c0.2 0.46 0.3 1 0.3 1.64 l0 2.8 c0 1.66 0.06 2.88 0.16 3.62 l-1.44 0 c-0.08 -0.44 -0.14 -1.02 -0.14 -1.74 l0 0 c-0.84 1.28 -1.94 1.92 -3.36 1.92 c-0.98 0 -1.8 -0.28 -2.4 -0.84 c-0.62 -0.54 -0.94 -1.24 -0.94 -2.1 l0 -0.1 c0 -2.16 2.16 -2.88 3.94 -2.88 z M115.74 15.8 l0 -0.34 l-2.78 0 c-0.58 0 -1.12 0.1 -1.62 0.34 c-0.5 0.22 -0.84 0.7 -0.84 1.32 c0 0.56 0.2 0.98 0.62 1.3 c0.4 0.32 0.9 0.48 1.52 0.48 c0.88 0 1.62 -0.3 2.22 -0.88 c0.58 -0.56 0.88 -1.32 0.88 -2.22 z M121.28399999999999 20 l0 -15.18 l1.46 0 l0 15.18 l-1.46 0 z M135.76799999999997 15.48 l-8.04 0 c0.06 0.98 0.42 1.78 1.1 2.42 c0.68 0.66 1.5 0.98 2.46 0.98 c1.5 0 2.62 -0.74 3.08 -2.12 l1.28 0.4 c-0.28 0.94 -0.82 1.68 -1.62 2.22 c-0.8 0.52 -1.7 0.8 -2.72 0.8 c-0.94 0 -1.8 -0.24 -2.58 -0.7 s-1.38 -1.08 -1.8 -1.88 c-0.44 -0.78 -0.66 -1.64 -0.66 -2.58 c0 -0.9 0.2 -1.74 0.62 -2.52 c0.4 -0.8 0.98 -1.42 1.74 -1.9 c0.74 -0.48 1.58 -0.72 2.48 -0.72 c0.98 0 1.84 0.22 2.56 0.68 c0.72 0.44 1.26 1.06 1.6 1.82 c0.36 0.76 0.52 1.62 0.52 2.62 c0 0.1 0 0.26 -0.02 0.48 z M127.74799999999999 14.24 l6.58 0 c-0.1 -0.92 -0.44 -1.66 -1 -2.24 c-0.56 -0.56 -1.3 -0.84 -2.22 -0.84 c-0.86 0 -1.58 0.3 -2.22 0.9 c-0.64 0.62 -1.02 1.34 -1.14 2.18 z M139.25199999999998 10.06 l1.42 0 l0 1.96 c0.48 -0.98 1.28 -1.64 2.04 -1.92 c0.38 -0.14 0.78 -0.2 1.18 -0.2 c0.22 0 0.38 0 0.48 0.04 l0 1.54 c-0.16 -0.04 -0.36 -0.04 -0.56 -0.04 c-2.36 0 -3.1 1.94 -3.1 3.7 l0 4.86 l-1.46 0 l0 -9.94 z M160.01999999999998 17.18 c0 0.88 -0.34 1.6 -1.02 2.14 c-0.68 0.56 -1.52 0.84 -2.5 0.84 c-1.6 0 -2.64 -0.66 -3.18 -1.44 c-0.4 -0.54 -0.54 -1.02 -0.6 -1.52 l1.32 -0.34 c0.16 0.92 0.86 2.04 2.44 2.04 c0.56 0 1.04 -0.16 1.46 -0.46 c0.4 -0.28 0.6 -0.68 0.6 -1.18 c0 -0.4 -0.16 -0.72 -0.48 -0.96 c-0.32 -0.26 -0.7 -0.42 -1.14 -0.52 l-1.52 -0.34 c-1.64 -0.36 -2.48 -1.24 -2.48 -2.6 c0 -1.02 0.52 -1.86 1.24 -2.3 c0.7 -0.44 1.46 -0.66 2.14 -0.66 c1.5 0.02 2.46 0.6 2.98 1.32 c0.36 0.5 0.52 0.92 0.6 1.34 l-1.32 0.38 c-0.1 -0.4 -0.26 -0.72 -0.58 -1.12 c-0.34 -0.4 -0.94 -0.64 -1.68 -0.64 c-0.54 0 -0.98 0.14 -1.36 0.46 c-0.38 0.3 -0.56 0.68 -0.56 1.12 c0 0.78 0.56 1.14 1.44 1.36 l1.6 0.36 c1.3 0.3 2.6 1.12 2.6 2.72 z M172.344 15.48 l-8.04 0 c0.06 0.98 0.42 1.78 1.1 2.42 c0.68 0.66 1.5 0.98 2.46 0.98 c1.5 0 2.62 -0.74 3.08 -2.12 l1.28 0.4 c-0.28 0.94 -0.82 1.68 -1.62 2.22 c-0.8 0.52 -1.7 0.8 -2.72 0.8 c-0.94 0 -1.8 -0.24 -2.58 -0.7 s-1.38 -1.08 -1.8 -1.88 c-0.44 -0.78 -0.66 -1.64 -0.66 -2.58 c0 -0.9 0.2 -1.74 0.62 -2.52 c0.4 -0.8 0.98 -1.42 1.74 -1.9 c0.74 -0.48 1.58 -0.72 2.48 -0.72 c0.98 0 1.84 0.22 2.56 0.68 c0.72 0.44 1.26 1.06 1.6 1.82 c0.36 0.76 0.52 1.62 0.52 2.62 c0 0.1 0 0.26 -0.02 0.48 z M164.324 14.24 l6.58 0 c-0.1 -0.92 -0.44 -1.66 -1 -2.24 c-0.56 -0.56 -1.3 -0.84 -2.22 -0.84 c-0.86 0 -1.58 0.3 -2.22 0.9 c-0.64 0.62 -1.02 1.34 -1.14 2.18 z M175.828 10.06 l1.42 0 l0 1.96 c0.48 -0.98 1.28 -1.64 2.04 -1.92 c0.38 -0.14 0.78 -0.2 1.18 -0.2 c0.22 0 0.38 0 0.48 0.04 l0 1.54 c-0.16 -0.04 -0.36 -0.04 -0.56 -0.04 c-2.36 0 -3.1 1.94 -3.1 3.7 l0 4.86 l-1.46 0 l0 -9.94 z M188.43200000000002 20 l-1.54 0 l-4.22 -9.94 l1.6 0 l3.4 8.34 l3.46 -8.34 l1.54 0 z M195.67600000000002 7.279999999999999 c-0.2 -0.22 -0.32 -0.48 -0.32 -0.78 s0.12 -0.56 0.32 -0.78 c0.2 -0.2 0.48 -0.32 0.78 -0.32 s0.56 0.12 0.76 0.32 c0.22 0.22 0.32 0.48 0.32 0.78 s-0.1 0.56 -0.32 0.78 c-0.2 0.2 -0.46 0.32 -0.76 0.32 s-0.58 -0.12 -0.78 -0.32 z M195.716 20 l0 -9.94 l1.46 0 l0 9.94 l-1.46 0 z M202.18000000000004 14.98 c0 1.4 0.58 2.62 1.68 3.34 c0.56 0.38 1.2 0.56 1.92 0.56 c0.84 0 1.58 -0.28 2.04 -0.62 c0.22 -0.16 0.42 -0.36 0.62 -0.6 c0.36 -0.48 0.52 -0.8 0.66 -1.16 l1.34 0.44 c-0.22 0.78 -0.76 1.54 -1.52 2.16 c-0.76 0.64 -1.92 1.08 -3.16 1.08 c-2.84 0.04 -5.1 -2.18 -5.06 -5.12 c0 -0.98 0.24 -1.86 0.7 -2.66 s1.08 -1.42 1.86 -1.86 s1.62 -0.66 2.56 -0.66 c1.12 0 2.12 0.32 2.96 0.92 c0.86 0.64 1.4 1.38 1.6 2.26 l-1.32 0.44 c-0.22 -0.8 -1.24 -2.32 -3.28 -2.32 c-1.04 0 -1.9 0.36 -2.58 1.1 s-1.02 1.64 -1.02 2.7 z M222.604 15.48 l-8.04 0 c0.06 0.98 0.42 1.78 1.1 2.42 c0.68 0.66 1.5 0.98 2.46 0.98 c1.5 0 2.62 -0.74 3.08 -2.12 l1.28 0.4 c-0.28 0.94 -0.82 1.68 -1.62 2.22 c-0.8 0.52 -1.7 0.8 -2.72 0.8 c-0.94 0 -1.8 -0.24 -2.58 -0.7 s-1.38 -1.08 -1.8 -1.88 c-0.44 -0.78 -0.66 -1.64 -0.66 -2.58 c0 -0.9 0.2 -1.74 0.62 -2.52 c0.4 -0.8 0.98 -1.42 1.74 -1.9 c0.74 -0.48 1.58 -0.72 2.48 -0.72 c0.98 0 1.84 0.22 2.56 0.68 c0.72 0.44 1.26 1.06 1.6 1.82 c0.36 0.76 0.52 1.62 0.52 2.62 c0 0.1 0 0.26 -0.02 0.48 z M214.58400000000003 14.24 l6.58 0 c-0.1 -0.92 -0.44 -1.66 -1 -2.24 c-0.56 -0.56 -1.3 -0.84 -2.22 -0.84 c-0.86 0 -1.58 0.3 -2.22 0.9 c-0.64 0.62 -1.02 1.34 -1.14 2.18 z M232.64800000000002 17.18 c0 0.88 -0.34 1.6 -1.02 2.14 c-0.68 0.56 -1.52 0.84 -2.5 0.84 c-1.6 0 -2.64 -0.66 -3.18 -1.44 c-0.4 -0.54 -0.54 -1.02 -0.6 -1.52 l1.32 -0.34 c0.16 0.92 0.86 2.04 2.44 2.04 c0.56 0 1.04 -0.16 1.46 -0.46 c0.4 -0.28 0.6 -0.68 0.6 -1.18 c0 -0.4 -0.16 -0.72 -0.48 -0.96 c-0.32 -0.26 -0.7 -0.42 -1.14 -0.52 l-1.52 -0.34 c-1.64 -0.36 -2.48 -1.24 -2.48 -2.6 c0 -1.02 0.52 -1.86 1.24 -2.3 c0.7 -0.44 1.46 -0.66 2.14 -0.66 c1.5 0.02 2.46 0.6 2.98 1.32 c0.36 0.5 0.52 0.92 0.6 1.34 l-1.32 0.38 c-0.1 -0.4 -0.26 -0.72 -0.58 -1.12 c-0.34 -0.4 -0.94 -0.64 -1.68 -0.64 c-0.54 0 -0.98 0.14 -1.36 0.46 c-0.38 0.3 -0.56 0.68 -0.56 1.12 c0 0.78 0.56 1.14 1.44 1.36 l1.6 0.36 c1.3 0.3 2.6 1.12 2.6 2.72 z"></path></g>
			</g>
		</svg>
	